<?xml version="1.0" standalone="no"?><!DOCTYPE svg PUBLIC "-//W3C//DTD SVG 1.1//EN" "http://www.w3.org/Graphics/SVG/1.1/DTD/svg11.dtd"><svg t="1607501886814" class="icon" viewBox="0 0 1024 1024" version="1.1" xmlns="http://www.w3.org/2000/svg" p-id="13069" xmlns:xlink="http://www.w3.org/1999/xlink" width="200" height="200"><defs><style type="text/css"></style></defs><path d="M840.6016 556.032m-78.0288 0a78.0288 78.0288 0 1 0 156.0576 0 78.0288 78.0288 0 1 0-156.0576 0Z" fill="#E0C8FC" p-id="13070"></path><path d="M840.6016 299.264c-72.0896-94.8224-186.0608-156.0576-314.368-156.0576-218.0096 0-394.8032 176.7424-394.8032 394.8032s176.7424 394.8032 394.8032 394.8032c118.4256 0 224.6144-52.224 296.96-134.8096l-237.6704-244.2752 255.0784-254.464zM439.9104 435.8144h-42.24v42.24c0 16.9472-13.7728 30.72-30.72 30.72s-30.72-13.7728-30.72-30.72v-42.24h-42.24c-16.9472 0-30.72-13.7728-30.72-30.72s13.7728-30.72 30.72-30.72h42.24v-42.24c0-16.9472 13.7728-30.72 30.72-30.72s30.72 13.7728 30.72 30.72v42.24h42.24c16.9472 0 30.72 13.7728 30.72 30.72s-13.7728 30.72-30.72 30.72z" fill="#E0C8FC" p-id="13071"></path><path d="M815.0016 520.192m-78.0288 0a78.0288 78.0288 0 1 0 156.0576 0 78.0288 78.0288 0 1 0-156.0576 0Z" fill="#B16EF1" p-id="13072"></path><path d="M815.0016 263.424c-72.0896-94.8224-186.0608-156.0576-314.368-156.0576-218.0096 0-394.8032 176.7424-394.8032 394.8032s176.7424 394.8032 394.8032 394.8032c118.4256 0 224.6144-52.224 296.96-134.8096l-237.6704-244.2752 255.0784-254.464zM414.3104 399.9744h-42.24v42.24c0 16.9472-13.7728 30.72-30.72 30.72s-30.72-13.7728-30.72-30.72v-42.24h-42.24c-16.9472 0-30.72-13.7728-30.72-30.72s13.7728-30.72 30.72-30.72h42.24v-42.24c0-16.9472 13.7728-30.72 30.72-30.72s30.72 13.7728 30.72 30.72v42.24h42.24c16.9472 0 30.72 13.7728 30.72 30.72s-13.7728 30.72-30.72 30.72z" fill="#B16EF1" p-id="13073"></path></svg>